<svg width="24" height="24" viewBox="0 0 24 24" fill="none" xmlns="http://www.w3.org/2000/svg">
<path d="M23.1799 19.2132L19.1258 15.1532L16.0074 13.863C17.0457 12.3843 17.602 10.6203 17.6 8.81258C17.6 3.9533 13.6523 0 8.79998 0C3.94764 0 0 3.9533 0 8.81258C0 13.6719 3.94764 17.6252 8.79998 17.6252C10.6208 17.6272 12.3969 17.0605 13.8809 16.004L15.1659 19.1184L19.22 23.1786C19.48 23.439 19.7886 23.6456 20.1283 23.7865C20.4681 23.9274 20.8322 24 21.1999 24C21.5676 24 21.9317 23.9275 22.2714 23.7866C22.6111 23.6457 22.9198 23.4391 23.1798 23.1788C23.4398 22.9184 23.6461 22.6093 23.7868 22.2691C23.9276 21.9289 24 21.5643 24 21.196C24 20.8278 23.9276 20.4632 23.7869 20.123C23.6462 19.7827 23.4399 19.4736 23.1799 19.2132ZM1.6 8.81258C1.6 4.83691 4.82999 1.60229 8.79998 1.60229C12.77 1.60229 16 4.83691 16 8.81258C16 12.7883 12.77 16.0229 8.79998 16.0229C4.82999 16.0229 1.6 12.7883 1.6 8.81258ZM22.0485 22.0457C21.8233 22.2707 21.5181 22.3971 21.2 22.3971C20.8818 22.3971 20.5766 22.2707 20.3514 22.0457L16.5228 18.2116L15.3281 15.3157L18.22 16.5121L22.0486 20.3462C22.2733 20.5718 22.3995 20.8774 22.3994 21.196C22.3994 21.5146 22.2732 21.8201 22.0485 22.0457Z" fill="black"/>
</svg>
